<?xml version="1.0" encoding="UTF-8"?>
<svg id="Warstwa_1" xmlns="http://www.w3.org/2000/svg" version="1.1" viewBox="0 0 841.89 595.28">
  <defs>
    <style>
      .st0 { fill: #1d1d1b; }
    </style>
  </defs>
  <path class="st0" d="M399.54,348.24c4.46-14.8,8.3-29.79,13.33-44.42.62-1.81,1.26-3.61,1.93-5.4.29-.78.59-1.57.9-2.35.16-.41.33-.82.5-1.24.07-.16.47-1.12.34-.82,1.22-2.88,2.57-6.42,4.95-8.54,3.72-3.3,8.15.75,10.48,3.72,3.01,3.84,5.45,8.12,7.76,12.41,5.32,9.89,10.19,20.21,18.82,27.72,1.35,1.18,3.71.84,4.18-1.1,2.57-10.68,5.14-21.37,7.7-32.05,1.25-5.22,2.42-10.47,3.77-15.66.97-3.73,2.9-7.83,7.25-8.26,3.78-.37,6.1,3.05,7.71,5.96,2.43,4.41,4.76,8.88,7.12,13.33,4.54,8.57,8.97,17.2,13.05,26.01,4.62,9.99,8.71,20.22,12.13,30.69,1,3.04,5.83,1.74,4.82-1.33-6.47-19.78-15.45-38.51-25.15-56.88-2.5-4.74-5-9.48-7.57-14.18-2-3.65-4.84-7.37-9.14-8.32-5-1.1-10.06,1.5-12.7,5.76-1.3,2.1-2,4.52-2.59,6.9-.68,2.78-1.34,5.57-2.01,8.36-3.07,12.79-6.15,25.58-9.22,38.37l4.18-1.1c-7.85-6.84-12.43-16.13-17.22-25.18-2.41-4.55-4.93-9.07-8.02-13.2s-7.57-8.79-13.38-8.07c-4.89.6-7.7,4.72-9.72,8.81-1.56,3.16-2.85,6.46-4.07,9.76-3.03,8.21-5.57,16.6-8.04,25s-4.53,16.03-6.92,24c-.93,3.09,3.9,4.41,4.82,1.33h0Z"/>
  <path class="st0" d="M243.58,250.79c1.43-2.45,1.84-5.25,1.09-7.99-.29-1.06-1.31-1.84-2.41-1.84-1.19,0-1.98.8-2.41,1.84-2.16,5.17.24,11.3,1.52,16.41,1.41,5.63,2.87,11.24,4.37,16.85,3.01,11.23,6.2,22.41,9.57,33.54,1.9,6.28,3.86,12.55,5.87,18.8.98,3.05,5.81,1.75,4.82-1.33-6.98-21.67-13.29-43.56-18.91-65.62-.77-3.01-1.52-6.02-2.26-9.03-.68-2.79-1.31-5.54-.16-8.29h-4.82c.4,1.48.19,2.82-.59,4.14-1.63,2.78,2.69,5.3,4.32,2.52h0Z"/>
  <path class="st0" d="M252.17,260.49c5.16,19.41,12.14,38.3,20.7,56.46.58,1.22,2.33,1.54,3.42.9,1.25-.73,1.47-2.19.9-3.42-8.38-17.77-15.15-36.28-20.2-55.27-.83-3.11-5.65-1.79-4.82,1.33h0Z"/>
  <path class="st0" d="M223.35,262.23c.03-.34-.09.37-.12.48s-.07.25-.12.36c.02-.06.12-.27,0-.02-.35.66-.39.68-.86,1.13-.68.65-1.77,1.25-2.76,1.59-2.59.91-5.53,1.14-8.16.58-6.2-1.33-11.52-5.48-14.6-10.97-3.52-6.27-3.32-13.61-1.39-20.37,2.1-7.34,5.91-14.39,10.44-20.52,8.01-10.82,19.61-17.51,32.67-20.25,12.78-2.68,26.3-1.76,38.82,1.81s24.64,10.59,34.23,20.09c9.72,9.63,16.99,21.55,21.87,34.3,5.39,14.06,8.78,29.56,8.2,44.66s-5.92,28.96-16.55,39.31c-10.69,10.41-25.55,15.25-40.16,16.59-16.7,1.54-33.36-1.34-49.44-5.7-4-1.09-7.98-2.26-11.94-3.49-3.08-.95-4.4,3.87-1.33,4.82,17.18,5.32,34.95,9.76,53.05,9.8,15.95.03,32.86-3.28,46.14-12.55,12.73-8.89,21.24-22.76,24.03-37.97,3.06-16.67.22-34.28-4.9-50.27-4.48-14-11.38-27.25-21.07-38.36s-22.02-19.64-35.94-24.5-27.92-6.18-41.94-4.13c-14.13,2.07-27.42,8.38-36.84,19.29-5.35,6.19-9.53,13.4-12.53,21s-4.53,16.41-1.8,24.35c2.29,6.66,7.15,12.45,13.46,15.64,6.04,3.06,13.72,3.99,19.8.44,2.68-1.57,4.47-4,4.75-7.12.12-1.35-1.24-2.5-2.5-2.5-1.45,0-2.38,1.15-2.5,2.5h0Z"/>
  <path class="st0" d="M364.57,265.22c-1.86,21.51-1.56,43.2.92,64.65.71,6.15,1.59,12.27,2.64,18.37.23,1.33,1.87,2.08,3.08,1.75,1.41-.39,1.98-1.74,1.75-3.08-3.61-21-5.09-42.34-4.45-63.64.18-6.03.54-12.05,1.06-18.05.12-1.35-1.23-2.5-2.5-2.5-1.45,0-2.38,1.15-2.5,2.5h0Z"/>
  <path class="st0" d="M558.42,346.91c-5.88-17.86-11.57-35.79-17.47-53.65-1.71-5.17-3.44-10.34-5.19-15.5-1.03-3.03-5.86-1.73-4.82,1.33,6.08,17.91,11.85,35.92,17.69,53.91,1.65,5.08,3.3,10.16,4.98,15.24,1,3.04,5.83,1.74,4.82-1.33h0Z"/>
  <path class="st0" d="M587.93,348.24c6.8-24.64,19.26-47.24,27.79-71.26,2.33-6.57,4.37-13.24,5.84-20.06.68-3.14-4.14-4.48-4.82-1.33-5.38,24.96-17.69,47.77-26.89,71.41-2.54,6.53-4.87,13.15-6.74,19.91-.86,3.11,3.97,4.43,4.82,1.33h0Z"/>
  <path class="st0" d="M659.05,345.81c-16.28-14.23-33.14-27.81-50.4-40.83-18.29-13.8-37.06-26.98-56.23-39.53s-40.04-25.28-60.7-36.84c-20.55-11.51-41.51-22.28-62.91-32.13s-41.61-18.13-63.04-25.56c-2.58-.9-5.17-1.77-7.76-2.63-3.06-1.01-4.37,3.81-1.33,4.82,21.25,7.04,42.08,15.31,62.51,24.46s42.17,20.04,62.63,31.27c20.65,11.33,40.89,23.41,60.7,36.15,19.39,12.46,38.37,25.56,56.88,39.28,17.22,12.76,34.03,26.09,50.3,40.04,1.95,1.67,3.89,3.35,5.82,5.04,1.02.89,2.54,1,3.54,0,.91-.91,1.02-2.64,0-3.54h0Z"/>
  <path class="st0" d="M358.46,249.82c-3.54.18-7.12-1.27-9.35-4.09-2.51-3.17-2.35-7.46-1.06-11.09s3.66-6.41,7.04-8.08,6.95-2,10.49-2.01c3.85-.02,7.67.48,11.45,1.23,4.13.82,8.39,1.84,11.92,4.25,2.39,1.63,4.82,4.89,3.75,7.89-.91,2.57-3.9,3.72-6.58,4.06-9.33,1.21-16.53-5.75-24.43-9.41-1.22-.57-2.69-.35-3.42.9-.63,1.08-.33,2.85.9,3.42,4.63,2.15,8.76,5.22,13.37,7.41,4.14,1.97,8.62,3.17,13.24,2.72,4.13-.39,8.29-1.9,10.67-5.5,2.69-4.07,1.35-9.21-1.54-12.74-3.18-3.89-8.27-5.83-13-7.03-4.69-1.19-9.56-1.98-14.4-2.17-4.44-.17-9.09.22-13.23,1.91-4.55,1.86-8.13,5.16-10.17,9.67-2.37,5.24-2.99,11.68.38,16.67,3.06,4.54,8.5,7.28,13.97,7,3.2-.17,3.22-5.17,0-5h0Z"/>
</svg>
